<svg width="32" height="33" viewBox="0 0 32 33" fill="none" xmlns="http://www.w3.org/2000/svg">
<path d="M28.6255 10.6944H15.3809L9.21631 1.15646C8.97217 0.699012 8.6263 0.447412 8.17871 0.401667C7.73112 0.355922 7.30387 0.51603 6.89697 0.881993C6.28662 1.61392 6.24593 2.34584 6.7749 3.07777L11.5967 10.6944H2.62451C1.89209 10.6944 1.27157 10.9803 0.762939 11.5521C0.254313 12.1239 0 12.7986 0 13.5763V15.0859C0 16.3668 0.528971 17.2359 1.58691 17.6934L5.18799 30.1132C5.35075 30.7537 5.67627 31.3369 6.16455 31.863C6.65283 32.3891 7.20215 32.6521 7.8125 32.6521H23.4375C24.0479 32.6521 24.5972 32.3891 25.0854 31.863C25.5737 31.3369 25.8993 30.7537 26.062 30.1132L29.6631 17.8306C30.721 17.3732 31.25 16.504 31.25 15.2231V13.7136C31.25 12.8444 30.9957 12.1239 30.4871 11.5521C29.9784 10.9803 29.3579 10.6944 28.6255 10.6944ZM2.62451 13.5763H13.5498L14.4653 14.9487C14.5467 14.9487 14.5874 14.9944 14.5874 15.0859H2.62451V13.5763ZM23.5596 29.2898V29.4271C23.5596 29.4728 23.5392 29.5186 23.4985 29.5643C23.4578 29.61 23.4375 29.6558 23.4375 29.7015H7.93457C7.85319 29.7015 7.8125 29.61 7.8125 29.4271L4.45557 17.9679H26.7944L23.5596 29.2898ZM16.7847 15.0859C17.0695 14.537 17.2119 14.0338 17.2119 13.5763H28.6255V15.0859H16.7847ZM9.09424 27.0941C9.13493 27.4143 9.29769 27.6887 9.58252 27.9175C9.86735 28.1462 10.1522 28.2606 10.437 28.2606H10.6812C11.0067 28.1691 11.2712 27.9403 11.4746 27.5744C11.6781 27.2084 11.7188 26.8425 11.5967 26.4765L10.3149 20.644C10.2336 20.278 10.0301 19.9807 9.70459 19.7519C9.37907 19.5232 9.05355 19.4775 8.72803 19.6147C8.40251 19.7062 8.13802 19.9349 7.93457 20.3009C7.73112 20.6668 7.69043 21.0099 7.8125 21.3301L9.09424 27.0941ZM20.5688 28.2606H20.813C21.0978 28.2606 21.3827 28.1462 21.6675 27.9175C21.9523 27.6887 22.1151 27.4143 22.1558 27.0941L23.4375 21.1929C23.5189 20.8269 23.468 20.461 23.2849 20.095C23.1018 19.7291 22.8475 19.5232 22.522 19.4775C21.6675 19.2945 21.1385 19.6376 20.9351 20.5067L19.6533 26.3393C19.4092 27.2542 19.7144 27.8946 20.5688 28.2606ZM15.625 28.2606C16.4795 28.2606 16.9067 27.7574 16.9067 26.751V20.9184C16.9067 19.9578 16.4795 19.4775 15.625 19.4775C14.7705 19.4775 14.3433 19.9578 14.3433 20.9184V26.751C14.3433 27.7574 14.7705 28.2606 15.625 28.2606Z" fill="#C585A1"/>
</svg>
