<svg width="16" height="17" viewBox="0 0 16 17" fill="none" xmlns="http://www.w3.org/2000/svg">
<path d="M14.3127 5.34742H7.69043L4.60815 0.578476C4.48608 0.34975 4.31315 0.22395 4.08936 0.201078C3.86556 0.178205 3.65194 0.258259 3.44849 0.441241C3.14331 0.807203 3.12297 1.17317 3.38745 1.53913L5.79834 5.34742H1.31226C0.946045 5.34742 0.635783 5.49038 0.38147 5.77629C0.127157 6.06219 0 6.39957 0 6.7884V7.5432C0 8.18363 0.264486 8.61821 0.793457 8.84694L2.59399 15.0569C2.67537 15.3771 2.83813 15.6687 3.08228 15.9317C3.32642 16.1948 3.60107 16.3263 3.90625 16.3263H11.7188C12.0239 16.3263 12.2986 16.1948 12.5427 15.9317C12.7869 15.6687 12.9496 15.3771 13.031 15.0569L14.8315 8.91556C15.3605 8.68683 15.625 8.25225 15.625 7.61182V6.85702C15.625 6.42244 15.4978 6.06219 15.2435 5.77629C14.9892 5.49038 14.679 5.34742 14.3127 5.34742ZM1.31226 6.7884H6.7749L7.23267 7.47458C7.27336 7.47458 7.2937 7.49745 7.2937 7.5432H1.31226V6.7884ZM11.7798 14.6452V14.7138C11.7798 14.7366 11.7696 14.7595 11.7493 14.7824C11.7289 14.8053 11.7188 14.8281 11.7188 14.851H3.96729C3.92659 14.851 3.90625 14.8053 3.90625 14.7138L2.22778 8.98418H13.3972L11.7798 14.6452ZM8.39233 7.5432C8.53475 7.26873 8.60596 7.01713 8.60596 6.7884H14.3127V7.5432H8.39233ZM4.54712 13.5473C4.56746 13.7074 4.64884 13.8446 4.79126 13.959C4.93368 14.0733 5.07609 14.1305 5.21851 14.1305H5.34058C5.50334 14.0848 5.63558 13.9704 5.7373 13.7874C5.83903 13.6045 5.85938 13.4215 5.79834 13.2385L5.15747 10.3222C5.11678 10.1392 5.01506 9.99057 4.85229 9.87621C4.68953 9.76185 4.52677 9.73897 4.36401 9.80759C4.20125 9.85334 4.06901 9.9677 3.96729 10.1507C3.86556 10.3337 3.84521 10.5052 3.90625 10.6653L4.54712 13.5473ZM10.2844 14.1305H10.4065C10.5489 14.1305 10.6913 14.0733 10.8337 13.959C10.9762 13.8446 11.0575 13.7074 11.0779 13.5473L11.7188 10.5967C11.7594 10.4137 11.734 10.2307 11.6425 10.0478C11.5509 9.86477 11.4237 9.76185 11.261 9.73897C10.8337 9.64748 10.5693 9.81903 10.4675 10.2536L9.82666 13.1699C9.70459 13.6273 9.85718 13.9475 10.2844 14.1305ZM7.8125 14.1305C8.23975 14.1305 8.45337 13.8789 8.45337 13.3757V10.4595C8.45337 9.97914 8.23975 9.73897 7.8125 9.73897C7.38525 9.73897 7.17163 9.97914 7.17163 10.4595V13.3757C7.17163 13.8789 7.38525 14.1305 7.8125 14.1305Z" fill="white"/>
</svg>
