<svg width="124" height="118" viewBox="0 0 124 118" fill="none" xmlns="http://www.w3.org/2000/svg">
<g clip-path="url(#clip0)">
<circle cx="62" cy="59" r="62" fill="#C585A1" fill-opacity="0.5"/>
<path d="M22 21H29.2025V42.5715H22V21ZM31.4248 26.8731C31.4248 24.5344 31.9246 22.963 32.9242 22.1588C33.8703 21.4074 35.6508 21.0317 38.2659 21.0317H39.618V24.0318C39.618 26.4234 39.1049 28.127 38.0784 29.1429C37.0342 30.1587 35.2359 30.6668 32.6833 30.6668H31.4248V26.8731ZM31.4248 32.3176H32.6833C35.2001 32.3176 36.9986 32.9101 38.0784 34.0953C39.1049 35.2276 39.618 37.0159 39.618 39.4603V42.6032H38.2659C35.7044 42.6032 33.9239 42.1483 32.9242 41.2382C31.9246 40.3174 31.4248 38.6667 31.4248 36.2857V32.3176ZM52.9922 30.9206C52.9922 27.9154 54.63 26.4127 57.9055 26.4127H59.7797V34.508H52.9922V30.9206ZM43.6209 26.4127H51.0644V42.6032H43.6209V26.4127ZM73.02 26.4127H74.0509C76.2464 26.4127 77.9332 27.2169 79.1113 28.8254C80.1734 30.2858 80.7045 32.2222 80.7045 34.6349C80.7045 37.09 80.1154 39.0159 78.9372 40.4128C77.7056 41.873 75.9653 42.6032 73.7161 42.6032H73.02V26.4127ZM63.1667 34.6985C63.1667 33.5344 63.2962 32.455 63.555 31.4604C63.8137 30.455 64.2155 29.5768 64.7599 28.8254C65.938 27.2169 67.6248 26.4127 69.8203 26.4127H70.8512V42.6032H70.1551C67.9059 42.6032 66.1655 41.873 64.9339 40.4128C63.7558 39.0159 63.1667 37.1111 63.1667 34.6985ZM93.3155 26.4127H94.3464C96.5419 26.4127 98.2287 27.2169 99.4069 28.8254C100.469 30.2858 101 32.2222 101 34.6349C101 37.09 100.411 39.0159 99.2329 40.4128C98.0012 41.873 96.2608 42.6032 94.0116 42.6032H93.3155V26.4127ZM83.9442 26.4127H91.1467V48H83.9442V26.4127Z" fill="#CA6791"/>
<path d="M8.49292 69.0454H7.70821V49.9546H15.1955V50.9091H8.49292V51.8636H15.1955V52.8182H8.49292V53.7727H15.1955V54.7273H8.49292V57.6439H14.6724V58.5984H8.49292V59.553H14.6724V60.5076H8.49292V61.4622H14.6724V62.4166H8.49292V69.0454ZM6.92351 69.0454H6.13881V49.9546H6.92351V69.0454ZM5.35411 69.0454H4.56941V49.9546H5.35411V69.0454ZM3.7847 69.0454H3V49.9546H3.7847V69.0454ZM16.972 49.9546H17.7568V69.0454H16.972V49.9546ZM21.6803 49.9546H22.465V64.2727H28.2521V65.2273H22.465V66.1819H28.2521V67.1363H22.465V68.0909H28.2521V69.0454H21.6803V49.9546ZM20.1108 49.9546H20.8955V69.0454H20.1108V49.9546ZM18.5415 49.9546H19.3262V69.0454H18.5415V49.9546ZM35.9793 56.8086C35.369 57.5512 35.0638 58.4482 35.0638 59.5C35.0638 60.5518 35.369 61.4532 35.9793 62.2046C36.5969 62.947 37.338 63.3181 38.2026 63.3181C39.0672 63.3181 39.8048 62.947 40.4151 62.2046C41.0326 61.4532 41.3415 60.5518 41.3415 59.5C41.3415 58.4482 41.0326 57.5512 40.4151 56.8086C39.8048 56.0575 39.0672 55.6819 38.2026 55.6819C37.338 55.6819 36.5969 56.0575 35.9793 56.8086ZM35.4235 62.8806C34.6606 61.9438 34.2791 60.8169 34.2791 59.5C34.2791 58.183 34.6606 57.0606 35.4235 56.1326C36.1936 55.1957 37.1201 54.7273 38.2026 54.7273C39.2852 54.7273 40.2079 55.1957 40.9709 56.1326C41.741 57.0606 42.1261 58.183 42.1261 59.5C42.1261 60.8169 41.741 61.9438 40.9709 62.8806C40.2079 63.8087 39.2852 64.2727 38.2026 64.2727C37.1201 64.2727 36.1936 63.8087 35.4235 62.8806ZM34.8676 55.4564C33.9521 56.5789 33.4944 57.9268 33.4944 59.5C33.4944 61.0732 33.9521 62.4211 34.8676 63.5435C35.7904 64.666 36.9021 65.2273 38.2026 65.2273C39.5032 65.2273 40.6112 64.666 41.5267 63.5435C42.4494 62.4211 42.9108 61.0732 42.9108 59.5C42.9108 57.9268 42.4494 56.5789 41.5267 55.4564C40.6112 54.334 39.5032 53.7727 38.2026 53.7727C36.9021 53.7727 35.7904 54.334 34.8676 55.4564ZM33.4399 62.8541C32.9531 61.829 32.7097 60.7108 32.7097 59.5C32.7097 58.2892 32.9531 57.1711 33.4399 56.1458C33.934 55.1206 34.6024 54.3119 35.4453 53.7197C36.2881 53.1186 37.2072 52.8182 38.2026 52.8182C39.1981 52.8182 40.1172 53.1186 40.96 53.7197C41.8028 54.3119 42.4676 55.1206 42.9544 56.1458C43.4485 57.1711 43.6955 58.2892 43.6955 59.5C43.6955 60.7108 43.4485 61.829 42.9544 62.8541C42.4676 63.8794 41.8028 64.6925 40.96 65.2935C40.1172 65.8858 39.1981 66.1819 38.2026 66.1819C37.2072 66.1819 36.2881 65.8858 35.4453 65.2935C34.6024 64.6925 33.934 63.8794 33.4399 62.8541ZM32.4154 56.5436C32.0885 57.4805 31.925 58.4659 31.925 59.5C31.925 60.5341 32.0885 61.524 32.4154 62.4697C32.7497 63.4066 33.1965 64.2197 33.7559 64.9091C34.3227 65.5896 34.9911 66.1332 35.7614 66.5397C36.5388 66.9374 37.3525 67.1363 38.2026 67.1363C39.0527 67.1363 39.8628 66.9374 40.6331 66.5397C41.4105 66.1332 42.0789 65.5896 42.6384 64.9091C43.2051 64.2197 43.652 63.4066 43.9789 62.4697C44.3132 61.524 44.4803 60.5341 44.4803 59.5C44.4803 58.4659 44.3132 57.4805 43.9789 56.5436C43.652 55.5978 43.2051 54.7847 42.6384 54.1041C42.0789 53.4147 41.4105 52.8712 40.6331 52.4735C39.8628 52.067 39.0527 51.8636 38.2026 51.8636C37.3525 51.8636 36.5388 52.067 35.7614 52.4735C34.9911 52.8712 34.3227 53.4147 33.7559 54.1041C33.1965 54.7847 32.7497 55.5978 32.4154 56.5436ZM31.6961 62.8409C31.3256 61.7803 31.1403 60.6666 31.1403 59.5C31.1403 58.3333 31.3256 57.2197 31.6961 56.1591C32.0739 55.0985 32.5753 54.1881 33.2002 53.428C33.8323 52.6591 34.5842 52.0493 35.4561 51.5985C36.3281 51.1389 37.2436 50.9091 38.2026 50.9091C39.1617 50.9091 40.0772 51.1389 40.9491 51.5985C41.8209 52.0493 42.5693 52.6591 43.1942 53.428C43.8263 54.1881 44.3276 55.0985 44.6983 56.1591C45.076 57.2197 45.265 58.3333 45.265 59.5C45.265 60.6666 45.076 61.7803 44.6983 62.8409C44.3276 63.9015 43.8263 64.8163 43.1942 65.5852C42.5693 66.3453 41.8209 66.9552 40.9491 67.4148C40.0772 67.8655 39.1617 68.0909 38.2026 68.0909C37.2436 68.0909 36.3281 67.8655 35.4561 67.4148C34.5842 66.9552 33.8323 66.3453 33.2002 65.5852C32.5753 64.8163 32.0739 63.9015 31.6961 62.8409ZM30.9768 55.8011C30.5626 56.9766 30.3556 58.2095 30.3556 59.5C30.3556 60.7903 30.5626 62.0278 30.9768 63.2121C31.3909 64.3877 31.9468 65.404 32.6443 66.2614C33.3491 67.1098 34.1847 67.786 35.151 68.2897C36.1247 68.7936 37.1418 69.0454 38.2026 69.0454C39.2635 69.0454 40.277 68.7936 41.2434 68.2897C42.217 67.786 43.0525 67.1098 43.7501 66.2614C44.4549 65.404 45.0143 64.3877 45.4285 63.2121C45.8426 62.0278 46.0496 60.7903 46.0496 59.5C46.0496 58.2095 45.8426 56.9766 45.4285 55.8011C45.0143 54.6167 44.4549 53.6004 43.7501 52.7518C43.0525 51.8946 42.217 51.214 41.2434 50.7102C40.277 50.2064 39.2635 49.9546 38.2026 49.9546C37.1418 49.9546 36.1247 50.2064 35.151 50.7102C34.1847 51.214 33.3491 51.8946 32.6443 52.7518C31.9468 53.6004 31.3909 54.6167 30.9768 55.8011ZM30.2575 63.5833C29.7998 62.2841 29.5709 60.923 29.5709 59.5C29.5709 58.077 29.7998 56.7203 30.2575 55.4299C30.7153 54.1307 31.3292 53.0126 32.0993 52.0758C32.8696 51.1389 33.7851 50.392 34.8458 49.8352C35.9139 49.2784 37.0328 49 38.2026 49C39.3724 49 40.4877 49.2784 41.5485 49.8352C42.6166 50.392 43.5357 51.1389 44.3058 52.0758C45.076 53.0126 45.69 54.1307 46.1477 55.4299C46.6055 56.7203 46.8343 58.077 46.8343 59.5C46.8343 60.923 46.6055 62.2841 46.1477 63.5833C45.69 64.8737 45.076 65.9874 44.3058 66.9243C43.5357 67.8611 42.6166 68.6079 41.5485 69.1648C40.4877 69.7215 39.3724 70 38.2026 70C37.0328 70 35.9139 69.7215 34.8458 69.1648C33.7851 68.6079 32.8696 67.8611 32.0993 66.9243C31.3292 65.9874 30.7153 64.8737 30.2575 63.5833ZM64.076 62.9071C64.2286 62.916 64.4139 62.9204 64.6319 62.9204C64.8498 62.9204 65.0314 62.916 65.1767 62.9071C65.3293 62.8895 65.4856 62.8541 65.6455 62.8011C65.8053 62.7393 65.9324 62.6597 66.0269 62.5624C66.1213 62.4652 66.1976 62.3283 66.2558 62.1515C66.3211 61.9659 66.3539 61.7449 66.3539 61.4887V49.9546H67.1386V61.4887C67.1386 63.0795 66.3029 63.875 64.6319 63.875C63.789 63.875 63.1642 63.6806 62.7573 63.2916C62.6992 63.6363 62.6302 63.9412 62.5502 64.2064C63.1024 64.6218 63.7963 64.8296 64.6319 64.8296C65.6055 64.8296 66.3974 64.5555 67.0077 64.0075C67.618 63.4508 67.9232 62.611 67.9232 61.4887V49.9546H68.7079V61.4887C68.7079 62.8762 68.3228 63.9412 67.5527 64.6837C66.7897 65.4172 65.8161 65.784 64.6319 65.784C63.7091 65.784 62.9172 65.5543 62.2559 65.0946C62.147 65.3775 62.0198 65.6471 61.8745 65.9034C62.6664 66.4602 63.5856 66.7386 64.6319 66.7386C65.3076 66.7386 65.936 66.6238 66.5173 66.3939C67.1058 66.1641 67.6217 65.8326 68.0649 65.3996C68.5081 64.9665 68.8569 64.4142 69.1112 63.7424C69.3655 63.0707 69.4926 62.3195 69.4926 61.4887V49.9546H70.2774V61.4887C70.2774 62.7613 70.0194 63.875 69.5035 64.8296C68.9949 65.784 68.3156 66.4999 67.4655 66.9773C66.6227 67.4545 65.6781 67.6932 64.6319 67.6932C63.4112 67.6932 62.3359 67.3529 61.4058 66.6724C61.2024 66.9552 61.0172 67.1849 60.85 67.3618C61.9326 68.219 63.1932 68.6477 64.6319 68.6477C65.8161 68.6477 66.8915 68.3648 67.8578 67.7992C68.8242 67.2335 69.598 66.4028 70.1793 65.3068C70.7678 64.202 71.0621 62.9292 71.0621 61.4887V49.9546H71.8467V61.4887C71.8467 62.7083 71.6542 63.8308 71.2691 64.8561C70.8913 65.8813 70.3755 66.7386 69.7215 67.428C69.0748 68.1174 68.312 68.6521 67.4328 69.0321C66.5537 69.4122 65.6199 69.6023 64.6319 69.6023C62.9026 69.6023 61.424 69.0631 60.1961 67.9848C58.9246 69.0631 57.4242 69.6023 55.6949 69.6023C54.7068 69.6023 53.7731 69.4122 52.894 69.0321C52.0148 68.6521 51.2483 68.1174 50.5944 67.428C49.9477 66.7386 49.4319 65.8813 49.0468 64.8561C48.669 63.8308 48.4801 62.7083 48.4801 61.4887V49.9546H49.2647V61.4887C49.2647 62.5758 49.4319 63.5745 49.7661 64.4849C50.1076 65.3952 50.569 66.1508 51.1502 66.7519C51.7314 67.3529 52.4108 67.8213 53.1883 68.1572C53.9729 68.4842 54.8086 68.6477 55.6949 68.6477C56.8502 68.6477 57.9219 68.3295 58.9101 67.6932C59.8982 67.048 60.6793 66.1773 61.2532 65.0814C61.8345 63.9766 62.1252 62.779 62.1252 61.4887V49.9546H62.9098V61.4887C62.9098 61.7449 62.9389 61.9659 62.9971 62.1515C63.0624 62.3283 63.1424 62.4652 63.2369 62.5624C63.3312 62.6597 63.4584 62.7393 63.6182 62.8011C63.7781 62.8541 63.9307 62.8895 64.076 62.9071ZM58.2016 49.9546V61.4887C58.2016 63.0795 57.3661 63.875 55.6949 63.875C54.0238 63.875 53.1883 63.0795 53.1883 61.4887V49.9546H53.9729V61.4887C53.9729 61.7449 54.0021 61.9659 54.0602 62.1515C54.1256 62.3283 54.2055 62.4652 54.3 62.5624C54.3944 62.6597 54.5215 62.7393 54.6813 62.8011C54.8412 62.8541 54.9938 62.8895 55.1391 62.9071C55.2917 62.916 55.477 62.9204 55.6949 62.9204C55.9129 62.9204 56.0945 62.916 56.2398 62.9071C56.3925 62.8895 56.5487 62.8541 56.7086 62.8011C56.8684 62.7393 56.9955 62.6597 57.09 62.5624C57.1844 62.4652 57.2607 62.3283 57.3189 62.1515C57.3842 61.9659 57.417 61.7449 57.417 61.4887V49.9546H58.2016ZM59.771 49.9546V61.4887C59.771 62.8762 59.386 63.9412 58.6158 64.6837C57.8529 65.4172 56.8793 65.784 55.6949 65.784C54.5106 65.784 53.5334 65.4172 52.7632 64.6837C52.0003 63.9412 51.6189 62.8762 51.6189 61.4887V49.9546H52.4036V61.4887C52.4036 62.611 52.7087 63.4508 53.319 64.0075C53.9293 64.5555 54.7213 64.8296 55.6949 64.8296C56.6686 64.8296 57.4606 64.5555 58.0709 64.0075C58.6812 63.4508 58.9863 62.611 58.9863 61.4887V49.9546H59.771ZM61.3405 49.9546V61.4887C61.3405 62.7613 61.0825 63.875 60.5666 64.8296C60.058 65.784 59.3787 66.4999 58.5286 66.9773C57.6858 67.4545 56.7412 67.6932 55.6949 67.6932C54.6487 67.6932 53.7005 67.4545 52.8504 66.9773C52.0076 66.4999 51.3283 65.784 50.8124 64.8296C50.3038 63.875 50.0494 62.7613 50.0494 61.4887V49.9546H50.8341V61.4887C50.8341 62.3195 50.9613 63.0707 51.2156 63.7424C51.47 64.4142 51.8187 64.9665 52.2619 65.3996C52.7051 65.8326 53.2173 66.1641 53.7986 66.3939C54.3871 66.6238 55.0192 66.7386 55.6949 66.7386C56.3707 66.7386 56.9992 66.6238 57.5804 66.3939C58.169 66.1641 58.6848 65.8326 59.128 65.3996C59.5712 64.9665 59.9199 64.4142 60.1743 63.7424C60.4286 63.0707 60.5558 62.3195 60.5558 61.4887V49.9546H61.3405ZM77.7429 69.0454H76.9582V49.9546H77.7429V69.0454ZM76.1735 69.0454H75.3888V49.9546H76.1735V69.0454ZM74.6041 69.0454H73.8194V49.9546H74.6041V69.0454ZM79.3124 64.2727H86.8215V65.2273H79.3124V66.1819H86.8215V67.1363H79.3124V68.0909H86.8215V69.0454H78.5276V49.9546H86.8215V50.9091H79.3124V51.8636H86.8215V52.8182H79.3124V53.7727H86.8215V54.7273H79.3124V57.1003H86.3855V58.0549H79.3124V59.0095H86.3855V59.964H79.3124V60.9186H86.3855V61.873H79.3124V64.2727ZM94.6359 59.9242H99.3659C99.9906 59.9242 100.521 59.6855 100.957 59.2083C101.393 58.7311 101.611 58.0593 101.611 57.1932C101.611 56.5568 101.382 55.9867 100.924 55.483C100.474 54.9792 99.9544 54.7273 99.3659 54.7273H92.6304V69.0454H91.8458V53.7727H99.3659C100.172 53.7727 100.877 54.1174 101.48 54.8068C102.09 55.4962 102.396 56.2916 102.396 57.1932C102.396 58.3157 102.101 59.2127 101.513 59.8845C100.924 60.5473 100.209 60.8788 99.3659 60.8788H94.6359V59.9242ZM94.6359 61.8334H99.3659C100.412 61.8334 101.309 61.4002 102.058 60.5341C102.806 59.668 103.18 58.5542 103.18 57.1932C103.18 56.0353 102.799 55.019 102.036 54.1439C101.273 53.2601 100.383 52.8182 99.3659 52.8182H91.0611V69.0454H90.2764V51.8636H99.3659C100.601 51.8636 101.676 52.3983 102.592 53.4679C103.507 54.5284 103.965 55.7702 103.965 57.1932C103.965 58.7841 103.511 60.1143 102.603 61.1837C101.702 62.2532 100.623 62.7879 99.3659 62.7879H94.6359V61.8334ZM94.6359 63.7424H99.3659C100.332 63.7424 101.226 63.4596 102.047 62.8939C102.868 62.3283 103.522 61.5417 104.009 60.5341C104.503 59.5265 104.75 58.4129 104.75 57.1932C104.75 56.0884 104.506 55.0543 104.02 54.0909C103.533 53.1186 102.872 52.3453 102.036 51.7709C101.208 51.1963 100.318 50.9091 99.3659 50.9091H89.4916V69.0454H88.7069V49.9546H99.3659C100.187 49.9546 100.975 50.1534 101.731 50.5511C102.494 50.94 103.151 51.4615 103.703 52.1156C104.256 52.7608 104.699 53.5297 105.033 54.4223C105.367 55.3151 105.534 56.2386 105.534 57.1932C105.534 58.7399 105.244 60.0922 104.663 61.25C104.081 62.399 103.3 63.2739 102.319 63.875L103.965 69.0454H103.126L101.567 64.2594C101.371 64.339 101.142 64.4186 100.881 64.4981L102.352 69.0454H101.513L100.074 64.6572C99.849 64.6837 99.6129 64.6969 99.3659 64.6969L100.75 69.0454H99.9217L98.5484 64.6969H97.84L99.1587 69.0454H98.3304L97.0009 64.6969H94.6359V63.7424ZM94.1999 69.0454H93.4151V55.6819H99.3659C99.7727 55.6819 100.118 55.8321 100.401 56.1326C100.685 56.4243 100.826 56.7777 100.826 57.1932C100.826 58.3775 100.339 58.9696 99.3659 58.9696H94.6359V58.0152H99.3659C99.8163 58.0152 100.042 57.7411 100.042 57.1932C100.042 57.0429 99.9726 56.9148 99.8345 56.8086C99.7037 56.6938 99.5475 56.6363 99.3659 56.6363H94.1999V69.0454ZM114.493 59.964H113.251C111.725 59.964 110.552 59.5883 109.73 58.8371C108.91 58.077 108.498 57.0341 108.498 55.7084C108.498 54.4709 108.982 53.4413 109.948 52.6193C110.914 51.7885 112.27 51.3731 114.014 51.3731C115.176 51.3731 116.259 51.5675 117.262 51.9564C118.272 52.3453 119.11 52.8933 119.779 53.6004L119.169 54.1969C118.572 53.6048 117.824 53.1451 116.924 52.8182C116.023 52.4912 115.052 52.3276 114.014 52.3276C112.481 52.3276 111.308 52.6458 110.493 53.2822C109.687 53.9186 109.284 54.7273 109.284 55.7084C109.284 56.769 109.614 57.5865 110.276 58.1609C110.944 58.7266 111.936 59.0095 113.251 59.0095H114.449C115.997 59.0095 117.181 59.3895 118.003 60.1496C118.831 60.9009 119.245 61.9394 119.245 63.2651C119.245 64.5025 118.762 65.5366 117.795 66.3674C116.829 67.1894 115.474 67.6003 113.73 67.6003C112.568 67.6003 111.482 67.4059 110.471 67.0171C109.469 66.6282 108.633 66.0801 107.965 65.3731L108.575 64.7764C109.171 65.3686 109.92 65.8282 110.821 66.1552C111.721 66.4823 112.691 66.6458 113.73 66.6458C115.264 66.6458 116.433 66.3276 117.24 65.6913C118.054 65.0549 118.46 64.2462 118.46 63.2651C118.46 62.2046 118.126 61.3914 117.457 60.8258C116.796 60.2512 115.808 59.964 114.493 59.964ZM114.493 61.873H113.251C111.231 61.873 109.672 61.3163 108.575 60.2026C107.478 59.0802 106.93 57.5821 106.93 55.7084C106.93 54.851 107.086 54.0467 107.398 53.2955C107.711 52.5442 108.157 51.8857 108.739 51.32C109.327 50.7456 110.076 50.2948 110.983 49.9678C111.892 49.6319 112.902 49.464 114.014 49.464C115.416 49.464 116.727 49.7248 117.948 50.2462C119.169 50.7588 120.186 51.4792 121 52.4071L120.368 52.9773C119.627 52.1642 118.7 51.5366 117.588 51.0947C116.476 50.6439 115.285 50.4186 114.014 50.4186C112.052 50.4186 110.512 50.9224 109.392 51.9299C108.274 52.9375 107.714 54.1969 107.714 55.7084C107.714 57.3081 108.194 58.5763 109.153 59.5132C110.112 60.4502 111.478 60.9186 113.251 60.9186H114.449C116.6 60.9186 117.675 61.7007 117.675 63.2651C117.675 63.9722 117.345 64.5555 116.684 65.0151C116.03 65.4658 115.046 65.6913 113.73 65.6913C112.807 65.6913 111.95 65.5631 111.158 65.3068C110.366 65.0416 109.712 64.666 109.197 64.1799L109.817 63.5965C110.726 64.3566 112.03 64.7368 113.73 64.7368C114.82 64.7368 115.62 64.5997 116.128 64.3257C116.637 64.0518 116.891 63.6983 116.891 63.2651C116.891 62.7613 116.712 62.4034 116.356 62.1912C116.001 61.9792 115.38 61.873 114.493 61.873ZM114.493 58.0549H113.251C111.129 58.0549 110.068 57.2727 110.068 55.7084C110.068 55.0013 110.396 54.4223 111.049 53.9716C111.71 53.5119 112.699 53.2822 114.014 53.2822C114.936 53.2822 115.794 53.4147 116.586 53.6799C117.378 53.9363 118.031 54.3075 118.548 54.7936L117.926 55.3769C117.018 54.6167 115.714 54.2368 114.014 54.2368C112.924 54.2368 112.125 54.3737 111.616 54.6478C111.108 54.9217 110.853 55.2752 110.853 55.7084C110.853 56.2121 111.031 56.5701 111.387 56.7821C111.743 56.9943 112.364 57.1003 113.251 57.1003H114.493C116.513 57.1003 118.072 57.6616 119.169 58.7841C120.266 59.8977 120.814 61.3914 120.814 63.2651C120.814 64.1225 120.658 64.9268 120.345 65.678C120.033 66.4293 119.583 67.0922 118.994 67.6667C118.413 68.2323 117.668 68.683 116.76 69.0189C115.851 69.3459 114.842 69.5095 113.73 69.5095C112.328 69.5095 111.016 69.2531 109.796 68.7406C108.575 68.219 107.558 67.4943 106.744 66.5662L107.376 65.9962C108.117 66.8093 109.044 67.4413 110.155 67.892C111.267 68.3339 112.459 68.5549 113.73 68.5549C115.692 68.5549 117.232 68.0512 118.351 67.0436C119.471 66.036 120.03 64.7764 120.03 63.2651C120.03 61.6654 119.55 60.397 118.592 59.4602C117.632 58.5233 116.266 58.0549 114.493 58.0549Z" fill="#569372"/>
<path fill-rule="evenodd" clip-rule="evenodd" d="M46.0889 78.0879C45.9463 78.2329 45.9689 78.4771 46.203 79.3234C46.3189 79.7423 46.5105 80.4931 46.6289 80.992C47.1697 83.2711 47.5386 84.4255 48.1181 85.6519C49.3394 88.2368 51.1547 90.3005 53.0693 91.2806C53.5785 91.5412 54.3297 91.8131 54.5406 91.8131C54.5983 91.8131 54.7729 91.6372 54.9284 91.4223C55.9478 90.0143 57.3194 88.8647 58.997 88.0124L59.725 87.6426L59.3048 87.3849C58.8929 87.1324 57.1328 86.2569 56.0709 85.7766C55.7757 85.6431 55.5404 85.5283 55.5479 85.5215C55.5792 85.4935 58.1197 86.0515 58.5227 86.175C59.0892 86.3485 59.6768 86.621 60.2585 86.9799L60.7239 87.2671L61.0966 87.1603C62.5058 86.7562 64.1569 86.4112 65.3154 86.2784C65.5016 86.257 65.7301 86.2247 65.8233 86.2066L65.9929 86.1735L65.6695 85.6964C65.2734 85.1122 64.1142 83.9136 63.4076 83.3583C62.6503 82.7628 61.7497 82.178 60.8758 81.7145C58.5495 80.4802 57.1314 80.1426 52.3308 79.6791C51.6031 79.609 50.7723 79.5084 50.4846 79.4557C49.3404 79.2463 48.0864 78.8243 46.9814 78.277C46.3495 77.9639 46.2348 77.9396 46.0889 78.0879ZM75.9308 84.882C74.9657 85.3837 73.5827 85.8534 72.1836 86.1546C71.0287 86.4031 70.1214 86.537 67.7461 86.8098C64.3564 87.1987 62.988 87.4384 61.439 87.9148C59.5741 88.4883 57.9381 89.409 56.7391 90.5599C54.4254 92.7808 52.6811 97.1871 52.1328 102.196C52.027 103.163 52.0311 106.76 52.139 107.638C52.2373 108.439 52.4386 109.428 52.5464 109.64C52.7481 110.038 53.0526 110.116 53.2654 109.825C53.3797 109.669 53.3796 109.656 53.253 109.106C52.8875 107.515 52.9132 105.567 53.3235 103.76C53.9725 100.902 55.1156 98.9504 57.0004 97.4829C58.34 96.4399 59.7277 95.7615 61.9466 95.0646C62.8322 94.7865 62.9512 94.7626 63.0337 94.8464C63.1598 94.9747 63.0728 95.0489 62.4845 95.3146C61.4613 95.7772 59.8229 96.6435 59.3379 96.9786C57.7731 98.0596 56.5213 99.5008 55.7002 101.166C55.199 102.183 54.9759 103.272 55.185 103.683C55.3817 104.07 55.6519 104.1 56.4021 103.819C57.687 103.337 58.7202 103.121 61.4692 102.759C65.1431 102.275 66.3963 101.961 68.009 101.122C71.5466 99.2816 74.1539 95.8274 75.4606 91.2502C75.5637 90.889 75.8697 89.6927 76.1403 88.5919C76.4112 87.4909 76.7168 86.2947 76.8198 85.9334C77.045 85.143 77.055 84.9199 76.8729 84.7475C76.6802 84.5648 76.4884 84.5922 75.9308 84.882Z" fill="#569372"/>
</g>
<defs>
<clipPath id="clip0">
<rect width="124" height="118" rx="59" fill="white"/>
</clipPath>
</defs>
</svg>
