<svg width="26" height="26" viewBox="0 0 26 26" fill="none" xmlns="http://www.w3.org/2000/svg">
<path d="M17.3199 13C17.3199 10.6 15.4 8.67995 13 8.67995C10.6 8.67995 8.67995 10.6 8.67995 13C8.67995 15.4 10.6 17.3199 13 17.3199C15.4 17.3199 17.3199 15.4 17.3199 13ZM19.56 13C19.56 16.68 16.68 19.56 13 19.56C9.31995 19.56 6.43995 16.68 6.43995 13C6.43995 9.31995 9.31995 6.43995 13 6.43995C16.68 6.43995 19.56 9.31995 19.56 13ZM21.3199 6.11995C21.3199 7.07995 20.6799 7.71995 19.7199 7.71995C18.7599 7.71995 18.1199 7.07995 18.1199 6.11995C18.1199 5.15995 18.7599 4.51995 19.7199 4.51995C20.6799 4.51995 21.3199 5.31995 21.3199 6.11995ZM13 2.43995C11.08 2.43995 7.07995 2.27995 5.47995 2.91995C4.35995 3.39995 3.39995 4.35995 3.07995 5.47995C2.43995 7.07995 2.59995 11.08 2.59995 13C2.59995 14.92 2.43995 18.9199 3.07995 20.5199C3.39995 21.6399 4.35995 22.6 5.47995 22.92C7.07995 23.56 11.24 23.3999 13 23.3999C14.76 23.3999 18.9199 23.56 20.5199 22.92C21.6399 22.44 22.44 21.6399 22.92 20.5199C23.56 18.7599 23.3999 14.76 23.3999 13C23.3999 11.24 23.56 7.07995 22.92 5.47995C22.6 4.35995 21.6399 3.39995 20.5199 3.07995C18.9199 2.27995 14.92 2.43995 13 2.43995ZM25.7999 13V18.28C25.7999 20.2 25.16 22.12 23.72 23.72C22.28 25.16 20.36 25.7999 18.28 25.7999H7.71995C5.79995 25.7999 3.87995 25.16 2.27995 23.72C0.999951 22.28 0.199951 20.36 0.199951 18.28V13V7.71995C0.199951 5.63995 0.999951 3.71995 2.27995 2.27995C3.87995 0.999951 5.79995 0.199951 7.71995 0.199951H18.28C20.2 0.199951 22.12 0.839951 23.72 2.27995C25 3.71995 25.7999 5.63995 25.7999 7.71995V13Z" fill="#569372"/>
</svg>
