<svg width="116" height="50" viewBox="0 0 116 50" fill="none" xmlns="http://www.w3.org/2000/svg">
<path d="M1.11768 30.0444H6.63428V43.9795H1.11768V30.0444ZM8.33643 33.8384C8.33643 32.3276 8.71924 31.3125 9.48486 30.793C10.2095 30.3076 11.5732 30.0649 13.5762 30.0649H14.6118V32.0029C14.6118 33.5479 14.2188 34.6484 13.4326 35.3047C12.6328 35.9609 11.2554 36.2891 9.30029 36.2891H8.33643V33.8384ZM8.33643 37.3555H9.30029C11.228 37.3555 12.6055 37.7383 13.4326 38.5039C14.2188 39.2354 14.6118 40.3906 14.6118 41.9697V44H13.5762C11.6143 44 10.2505 43.7061 9.48486 43.1182C8.71924 42.5234 8.33643 41.457 8.33643 39.9189V37.3555ZM24.8555 36.4531C24.8555 34.5117 26.1099 33.541 28.6187 33.541H30.0542V38.7705H24.8555V36.4531ZM17.6777 33.541H23.3789V44H17.6777V33.541ZM40.1953 33.541H40.9849C42.6665 33.541 43.9585 34.0605 44.8608 35.0996C45.6743 36.043 46.0811 37.2939 46.0811 38.8525C46.0811 40.4385 45.6299 41.6826 44.7275 42.585C43.7842 43.5283 42.4512 44 40.7285 44H40.1953V33.541ZM32.6484 38.8936C32.6484 38.1416 32.7476 37.4443 32.9458 36.8018C33.144 36.1523 33.4517 35.585 33.8687 35.0996C34.771 34.0605 36.063 33.541 37.7446 33.541H38.5342V44H38.001C36.2783 44 34.9453 43.5283 34.002 42.585C33.0996 41.6826 32.6484 40.4521 32.6484 38.8936ZM55.7402 33.541H56.5298C58.2114 33.541 59.5034 34.0605 60.4058 35.0996C61.2192 36.043 61.626 37.2939 61.626 38.8525C61.626 40.4385 61.1748 41.6826 60.2725 42.585C59.3291 43.5283 57.9961 44 56.2734 44H55.7402V33.541ZM48.5625 33.541H54.0791V47.4863H48.5625V33.541Z" fill="#CA6791"/>
<path d="M6.12158 24H5.3833V9.23438H12.4277V9.97266H6.12158V10.7109H12.4277V11.4492H6.12158V12.1875H12.4277V12.9258H6.12158V15.1816H11.9355V15.9199H6.12158V16.6582H11.9355V17.3965H6.12158V18.1348H11.9355V18.873H6.12158V24ZM4.64502 24H3.90674V9.23438H4.64502V24ZM3.16846 24H2.43018V9.23438H3.16846V24ZM1.69189 24H0.953613V9.23438H1.69189V24ZM14.0991 9.23438H14.8374V24H14.0991V9.23438ZM18.5288 9.23438H19.2671V20.3086H24.7119V21.0469H19.2671V21.7852H24.7119V22.5234H19.2671V23.2617H24.7119V24H18.5288V9.23438ZM17.0522 9.23438H17.7905V24H17.0522V9.23438ZM15.5757 9.23438H16.314V24H15.5757V9.23438ZM31.9819 14.5356C31.4077 15.1099 31.1206 15.8037 31.1206 16.6172C31.1206 17.4307 31.4077 18.1279 31.9819 18.709C32.563 19.2832 33.2603 19.5703 34.0737 19.5703C34.8872 19.5703 35.5811 19.2832 36.1553 18.709C36.7363 18.1279 37.0269 17.4307 37.0269 16.6172C37.0269 15.8037 36.7363 15.1099 36.1553 14.5356C35.5811 13.9546 34.8872 13.6641 34.0737 13.6641C33.2603 13.6641 32.563 13.9546 31.9819 14.5356ZM31.459 19.2319C30.7412 18.5073 30.3823 17.6357 30.3823 16.6172C30.3823 15.5986 30.7412 14.7305 31.459 14.0127C32.1836 13.2881 33.0552 12.9258 34.0737 12.9258C35.0923 12.9258 35.9604 13.2881 36.6782 14.0127C37.4028 14.7305 37.7651 15.5986 37.7651 16.6172C37.7651 17.6357 37.4028 18.5073 36.6782 19.2319C35.9604 19.9497 35.0923 20.3086 34.0737 20.3086C33.0552 20.3086 32.1836 19.9497 31.459 19.2319ZM30.936 13.4897C30.0747 14.3579 29.644 15.4004 29.644 16.6172C29.644 17.834 30.0747 18.8765 30.936 19.7446C31.8042 20.6128 32.8501 21.0469 34.0737 21.0469C35.2974 21.0469 36.3398 20.6128 37.2012 19.7446C38.0693 18.8765 38.5034 17.834 38.5034 16.6172C38.5034 15.4004 38.0693 14.3579 37.2012 13.4897C36.3398 12.6216 35.2974 12.1875 34.0737 12.1875C32.8501 12.1875 31.8042 12.6216 30.936 13.4897ZM29.5928 19.2114C29.1348 18.4185 28.9058 17.5537 28.9058 16.6172C28.9058 15.6807 29.1348 14.8159 29.5928 14.0229C30.0576 13.23 30.6865 12.6045 31.4795 12.1465C32.2725 11.6816 33.1372 11.4492 34.0737 11.4492C35.0103 11.4492 35.875 11.6816 36.668 12.1465C37.4609 12.6045 38.0864 13.23 38.5444 14.0229C39.0093 14.8159 39.2417 15.6807 39.2417 16.6172C39.2417 17.5537 39.0093 18.4185 38.5444 19.2114C38.0864 20.0044 37.4609 20.6333 36.668 21.0981C35.875 21.5562 35.0103 21.7852 34.0737 21.7852C33.1372 21.7852 32.2725 21.5562 31.4795 21.0981C30.6865 20.6333 30.0576 20.0044 29.5928 19.2114ZM28.6289 14.3306C28.3213 15.0552 28.1675 15.8174 28.1675 16.6172C28.1675 17.417 28.3213 18.1826 28.6289 18.9141C28.9434 19.6387 29.3638 20.2676 29.8901 20.8008C30.4233 21.3271 31.0522 21.7476 31.7769 22.062C32.5083 22.3696 33.2739 22.5234 34.0737 22.5234C34.8735 22.5234 35.6357 22.3696 36.3604 22.062C37.0918 21.7476 37.7207 21.3271 38.2471 20.8008C38.7803 20.2676 39.2007 19.6387 39.5083 18.9141C39.8228 18.1826 39.98 17.417 39.98 16.6172C39.98 15.8174 39.8228 15.0552 39.5083 14.3306C39.2007 13.5991 38.7803 12.9702 38.2471 12.4438C37.7207 11.9106 37.0918 11.4902 36.3604 11.1826C35.6357 10.8682 34.8735 10.7109 34.0737 10.7109C33.2739 10.7109 32.5083 10.8682 31.7769 11.1826C31.0522 11.4902 30.4233 11.9106 29.8901 12.4438C29.3638 12.9702 28.9434 13.5991 28.6289 14.3306ZM27.9521 19.2012C27.6035 18.3809 27.4292 17.5195 27.4292 16.6172C27.4292 15.7148 27.6035 14.8535 27.9521 14.0332C28.3076 13.2129 28.7793 12.5088 29.3672 11.9209C29.9619 11.3262 30.6694 10.8545 31.4897 10.5059C32.3101 10.1504 33.1714 9.97266 34.0737 9.97266C34.9761 9.97266 35.8374 10.1504 36.6577 10.5059C37.478 10.8545 38.1821 11.3262 38.77 11.9209C39.3647 12.5088 39.8364 13.2129 40.1851 14.0332C40.5405 14.8535 40.7183 15.7148 40.7183 16.6172C40.7183 17.5195 40.5405 18.3809 40.1851 19.2012C39.8364 20.0215 39.3647 20.729 38.77 21.3237C38.1821 21.9116 37.478 22.3833 36.6577 22.7388C35.8374 23.0874 34.9761 23.2617 34.0737 23.2617C33.1714 23.2617 32.3101 23.0874 31.4897 22.7388C30.6694 22.3833 29.9619 21.9116 29.3672 21.3237C28.7793 20.729 28.3076 20.0215 27.9521 19.2012ZM27.2754 13.7563C26.8857 14.6655 26.6909 15.6191 26.6909 16.6172C26.6909 17.6152 26.8857 18.5723 27.2754 19.4883C27.665 20.3975 28.188 21.1836 28.8442 21.8467C29.5073 22.5029 30.2935 23.0259 31.2026 23.4155C32.1187 23.8052 33.0757 24 34.0737 24C35.0718 24 36.0254 23.8052 36.9346 23.4155C37.8506 23.0259 38.6367 22.5029 39.293 21.8467C39.9561 21.1836 40.4824 20.3975 40.8721 19.4883C41.2617 18.5723 41.4565 17.6152 41.4565 16.6172C41.4565 15.6191 41.2617 14.6655 40.8721 13.7563C40.4824 12.8403 39.9561 12.0542 39.293 11.3979C38.6367 10.7349 37.8506 10.2085 36.9346 9.81885C36.0254 9.4292 35.0718 9.23438 34.0737 9.23438C33.0757 9.23438 32.1187 9.4292 31.2026 9.81885C30.2935 10.2085 29.5073 10.7349 28.8442 11.3979C28.188 12.0542 27.665 12.8403 27.2754 13.7563ZM26.5986 19.7754C26.168 18.7705 25.9526 17.7178 25.9526 16.6172C25.9526 15.5166 26.168 14.4673 26.5986 13.4692C27.0293 12.4644 27.6069 11.5996 28.3315 10.875C29.0562 10.1504 29.9175 9.57275 30.9155 9.14209C31.9204 8.71143 32.9731 8.49609 34.0737 8.49609C35.1743 8.49609 36.2236 8.71143 37.2217 9.14209C38.2266 9.57275 39.0913 10.1504 39.8159 10.875C40.5405 11.5996 41.1182 12.4644 41.5488 13.4692C41.9795 14.4673 42.1948 15.5166 42.1948 16.6172C42.1948 17.7178 41.9795 18.7705 41.5488 19.7754C41.1182 20.7734 40.5405 21.6348 39.8159 22.3594C39.0913 23.084 38.2266 23.6616 37.2217 24.0923C36.2236 24.5229 35.1743 24.7383 34.0737 24.7383C32.9731 24.7383 31.9204 24.5229 30.9155 24.0923C29.9175 23.6616 29.0562 23.084 28.3315 22.3594C27.6069 21.6348 27.0293 20.7734 26.5986 19.7754ZM58.4165 19.2524C58.5601 19.2593 58.7344 19.2627 58.9395 19.2627C59.1445 19.2627 59.3154 19.2593 59.4521 19.2524C59.5957 19.2388 59.7427 19.2114 59.8931 19.1704C60.0435 19.1226 60.1631 19.061 60.252 18.9858C60.3408 18.9106 60.4126 18.8047 60.4673 18.668C60.5288 18.5244 60.5596 18.3535 60.5596 18.1553V9.23438H61.2979V18.1553C61.2979 19.3857 60.5117 20.001 58.9395 20.001C58.1465 20.001 57.5586 19.8506 57.1758 19.5498C57.1211 19.8164 57.0562 20.0522 56.981 20.2573C57.5005 20.5786 58.1533 20.7393 58.9395 20.7393C59.8555 20.7393 60.6006 20.5273 61.1748 20.1035C61.749 19.6729 62.0361 19.0234 62.0361 18.1553V9.23438H62.7744V18.1553C62.7744 19.2285 62.4121 20.0522 61.6875 20.6265C60.9697 21.1938 60.0537 21.4775 58.9395 21.4775C58.0713 21.4775 57.3262 21.2998 56.7041 20.9443C56.6016 21.1631 56.4819 21.3716 56.3452 21.5698C57.0903 22.0005 57.9551 22.2158 58.9395 22.2158C59.5752 22.2158 60.1665 22.127 60.7134 21.9492C61.2671 21.7715 61.7524 21.5151 62.1694 21.1802C62.5864 20.8452 62.9146 20.418 63.1538 19.8984C63.3931 19.3789 63.5127 18.7979 63.5127 18.1553V9.23438H64.251V18.1553C64.251 19.1396 64.0083 20.001 63.5229 20.7393C63.0444 21.4775 62.4053 22.0312 61.6055 22.4004C60.8125 22.7695 59.9238 22.9541 58.9395 22.9541C57.791 22.9541 56.7793 22.6909 55.9043 22.1646C55.7129 22.3833 55.5386 22.561 55.3813 22.6978C56.3999 23.3608 57.5859 23.6924 58.9395 23.6924C60.0537 23.6924 61.0654 23.4736 61.9746 23.0361C62.8838 22.5986 63.6118 21.9561 64.1587 21.1084C64.7124 20.2539 64.9893 19.2695 64.9893 18.1553V9.23438H65.7275V18.1553C65.7275 19.0986 65.5464 19.9668 65.1841 20.7598C64.8286 21.5527 64.3433 22.2158 63.728 22.749C63.1196 23.2822 62.4019 23.6958 61.5747 23.9897C60.7476 24.2837 59.8691 24.4307 58.9395 24.4307C57.3125 24.4307 55.9214 24.0137 54.7661 23.1797C53.5698 24.0137 52.1582 24.4307 50.5312 24.4307C49.6016 24.4307 48.7231 24.2837 47.896 23.9897C47.0688 23.6958 46.3477 23.2822 45.7324 22.749C45.124 22.2158 44.6387 21.5527 44.2764 20.7598C43.9209 19.9668 43.7432 19.0986 43.7432 18.1553V9.23438H44.4814V18.1553C44.4814 18.9961 44.6387 19.7686 44.9531 20.4727C45.2744 21.1768 45.7085 21.7612 46.2554 22.2261C46.8022 22.6909 47.4414 23.0532 48.1729 23.313C48.9111 23.5659 49.6973 23.6924 50.5312 23.6924C51.6182 23.6924 52.6265 23.4463 53.5562 22.9541C54.4858 22.4551 55.2207 21.7817 55.7607 20.9341C56.3076 20.0796 56.5811 19.1533 56.5811 18.1553V9.23438H57.3193V18.1553C57.3193 18.3535 57.3467 18.5244 57.4014 18.668C57.4629 18.8047 57.5381 18.9106 57.627 18.9858C57.7158 19.061 57.8354 19.1226 57.9858 19.1704C58.1362 19.2114 58.2798 19.2388 58.4165 19.2524ZM52.8896 9.23438V18.1553C52.8896 19.3857 52.1035 20.001 50.5312 20.001C48.959 20.001 48.1729 19.3857 48.1729 18.1553V9.23438H48.9111V18.1553C48.9111 18.3535 48.9385 18.5244 48.9932 18.668C49.0547 18.8047 49.1299 18.9106 49.2188 18.9858C49.3076 19.061 49.4272 19.1226 49.5776 19.1704C49.728 19.2114 49.8716 19.2388 50.0083 19.2524C50.1519 19.2593 50.3262 19.2627 50.5312 19.2627C50.7363 19.2627 50.9072 19.2593 51.0439 19.2524C51.1875 19.2388 51.3345 19.2114 51.4849 19.1704C51.6353 19.1226 51.7549 19.061 51.8438 18.9858C51.9326 18.9106 52.0044 18.8047 52.0591 18.668C52.1206 18.5244 52.1514 18.3535 52.1514 18.1553V9.23438H52.8896ZM54.3662 9.23438V18.1553C54.3662 19.2285 54.0039 20.0522 53.2793 20.6265C52.5615 21.1938 51.6455 21.4775 50.5312 21.4775C49.417 21.4775 48.4976 21.1938 47.7729 20.6265C47.0552 20.0522 46.6963 19.2285 46.6963 18.1553V9.23438H47.4346V18.1553C47.4346 19.0234 47.7217 19.6729 48.2959 20.1035C48.8701 20.5273 49.6152 20.7393 50.5312 20.7393C51.4473 20.7393 52.1924 20.5273 52.7666 20.1035C53.3408 19.6729 53.6279 19.0234 53.6279 18.1553V9.23438H54.3662ZM55.8428 9.23438V18.1553C55.8428 19.1396 55.6001 20.001 55.1147 20.7393C54.6362 21.4775 53.9971 22.0312 53.1973 22.4004C52.4043 22.7695 51.5156 22.9541 50.5312 22.9541C49.5469 22.9541 48.6548 22.7695 47.855 22.4004C47.062 22.0312 46.4229 21.4775 45.9375 20.7393C45.459 20.001 45.2197 19.1396 45.2197 18.1553V9.23438H45.958V18.1553C45.958 18.7979 46.0776 19.3789 46.3169 19.8984C46.5562 20.418 46.8843 20.8452 47.3013 21.1802C47.7183 21.5151 48.2002 21.7715 48.7471 21.9492C49.3008 22.127 49.8955 22.2158 50.5312 22.2158C51.167 22.2158 51.7583 22.127 52.3052 21.9492C52.8589 21.7715 53.3442 21.5151 53.7612 21.1802C54.1782 20.8452 54.5063 20.418 54.7456 19.8984C54.9849 19.3789 55.1045 18.7979 55.1045 18.1553V9.23438H55.8428ZM71.2749 24H70.5366V9.23438H71.2749V24ZM69.7983 24H69.0601V9.23438H69.7983V24ZM68.3218 24H67.5835V9.23438H68.3218V24ZM72.7515 20.3086H79.8164V21.0469H72.7515V21.7852H79.8164V22.5234H72.7515V23.2617H79.8164V24H72.0132V9.23438H79.8164V9.97266H72.7515V10.7109H79.8164V11.4492H72.7515V12.1875H79.8164V12.9258H72.7515V14.7612H79.4062V15.4995H72.7515V16.2378H79.4062V16.9761H72.7515V17.7144H79.4062V18.4526H72.7515V20.3086ZM87.1685 16.9453H91.6187C92.2065 16.9453 92.7056 16.7607 93.1157 16.3916C93.5259 16.0225 93.731 15.5029 93.731 14.833C93.731 14.3408 93.5156 13.8999 93.085 13.5103C92.6611 13.1206 92.1724 12.9258 91.6187 12.9258H85.2817V24H84.5435V12.1875H91.6187C92.3774 12.1875 93.0405 12.4541 93.6079 12.9873C94.1821 13.5205 94.4692 14.1357 94.4692 14.833C94.4692 15.7012 94.1924 16.395 93.6387 16.9146C93.085 17.4272 92.4116 17.6836 91.6187 17.6836H87.1685V16.9453ZM87.1685 18.4219H91.6187C92.603 18.4219 93.4473 18.0869 94.1514 17.417C94.8555 16.7471 95.2075 15.8857 95.2075 14.833C95.2075 13.9375 94.8486 13.1514 94.1309 12.4746C93.4131 11.791 92.5757 11.4492 91.6187 11.4492H83.8052V24H83.0669V10.7109H91.6187C92.7808 10.7109 93.7925 11.1245 94.6538 11.9517C95.5151 12.772 95.9458 13.7324 95.9458 14.833C95.9458 16.0635 95.5186 17.0923 94.6641 17.9194C93.8164 18.7466 92.8013 19.1602 91.6187 19.1602H87.1685V18.4219ZM87.1685 19.8984H91.6187C92.5278 19.8984 93.3687 19.6797 94.1411 19.2422C94.9136 18.8047 95.5288 18.1963 95.9868 17.417C96.4517 16.6377 96.6841 15.7764 96.6841 14.833C96.6841 13.9785 96.4551 13.1787 95.9971 12.4336C95.5391 11.6816 94.917 11.0835 94.1309 10.6392C93.3516 10.1948 92.5142 9.97266 91.6187 9.97266H82.3286V24H81.5903V9.23438H91.6187C92.3911 9.23438 93.1328 9.38818 93.8438 9.6958C94.5615 9.99658 95.1802 10.3999 95.6997 10.9058C96.2192 11.4048 96.6362 11.9995 96.9507 12.6899C97.2651 13.3804 97.4224 14.0947 97.4224 14.833C97.4224 16.0293 97.1489 17.0752 96.6021 17.9707C96.0552 18.8594 95.3203 19.5361 94.3975 20.001L95.9458 24H95.1562L93.6899 20.2983C93.5054 20.3599 93.29 20.4214 93.0439 20.4829L94.4282 24H93.6387L92.2852 20.606C92.0732 20.6265 91.8511 20.6367 91.6187 20.6367L92.9209 24H92.1416L90.8496 20.6367H90.1831L91.4238 24H90.6445L89.3936 20.6367H87.1685V19.8984ZM86.7583 24H86.02V13.6641H91.6187C92.0015 13.6641 92.3262 13.7803 92.5928 14.0127C92.8594 14.2383 92.9927 14.5117 92.9927 14.833C92.9927 15.749 92.5347 16.207 91.6187 16.207H87.1685V15.4688H91.6187C92.0425 15.4688 92.2544 15.2568 92.2544 14.833C92.2544 14.7168 92.1895 14.6177 92.0596 14.5356C91.9365 14.4468 91.7896 14.4023 91.6187 14.4023H86.7583V24ZM105.851 16.9761H104.682C103.247 16.9761 102.143 16.6855 101.37 16.1045C100.598 15.5166 100.211 14.71 100.211 13.6846C100.211 12.7275 100.666 11.9312 101.575 11.2954C102.484 10.6528 103.759 10.3315 105.4 10.3315C106.494 10.3315 107.512 10.4819 108.456 10.7827C109.406 11.0835 110.195 11.5073 110.824 12.0542L110.25 12.5156C109.689 12.0576 108.985 11.7021 108.138 11.4492C107.29 11.1963 106.377 11.0698 105.4 11.0698C103.958 11.0698 102.854 11.3159 102.088 11.8081C101.329 12.3003 100.95 12.9258 100.95 13.6846C100.95 14.5049 101.261 15.1372 101.883 15.5815C102.512 16.019 103.445 16.2378 104.682 16.2378H105.81C107.266 16.2378 108.38 16.5317 109.153 17.1196C109.932 17.7007 110.322 18.5039 110.322 19.5293C110.322 20.4863 109.867 21.2861 108.958 21.9287C108.049 22.5645 106.774 22.8823 105.133 22.8823C104.04 22.8823 103.018 22.7319 102.067 22.4312C101.124 22.1304 100.338 21.7065 99.709 21.1597L100.283 20.6982C100.844 21.1562 101.548 21.5117 102.396 21.7646C103.243 22.0176 104.156 22.144 105.133 22.144C106.576 22.144 107.676 21.8979 108.435 21.4058C109.201 20.9136 109.583 20.2881 109.583 19.5293C109.583 18.709 109.269 18.0801 108.64 17.6426C108.018 17.1982 107.088 16.9761 105.851 16.9761ZM105.851 18.4526H104.682C102.782 18.4526 101.315 18.022 100.283 17.1606C99.251 16.2925 98.7349 15.1338 98.7349 13.6846C98.7349 13.0215 98.8818 12.3994 99.1758 11.8184C99.4697 11.2373 99.8901 10.728 100.437 10.2905C100.991 9.84619 101.695 9.49756 102.549 9.24463C103.404 8.98486 104.354 8.85498 105.4 8.85498C106.719 8.85498 107.953 9.05664 109.102 9.45996C110.25 9.85645 111.207 10.4136 111.973 11.1313L111.378 11.5723C110.681 10.9434 109.809 10.458 108.763 10.1162C107.717 9.76758 106.596 9.59326 105.4 9.59326C103.554 9.59326 102.105 9.98291 101.052 10.7622C99.9995 11.5415 99.4731 12.5156 99.4731 13.6846C99.4731 14.9219 99.9243 15.9028 100.827 16.6274C101.729 17.3521 103.014 17.7144 104.682 17.7144H105.81C107.833 17.7144 108.845 18.3193 108.845 19.5293C108.845 20.0762 108.534 20.5273 107.912 20.8828C107.297 21.2314 106.371 21.4058 105.133 21.4058C104.265 21.4058 103.458 21.3066 102.713 21.1084C101.968 20.9033 101.353 20.6128 100.868 20.2368L101.452 19.7856C102.307 20.3735 103.534 20.6675 105.133 20.6675C106.159 20.6675 106.911 20.5615 107.389 20.3496C107.868 20.1377 108.107 19.8643 108.107 19.5293C108.107 19.1396 107.939 18.8628 107.604 18.6987C107.27 18.5347 106.685 18.4526 105.851 18.4526ZM105.851 15.4995H104.682C102.686 15.4995 101.688 14.8945 101.688 13.6846C101.688 13.1377 101.996 12.6899 102.611 12.3413C103.233 11.9858 104.163 11.8081 105.4 11.8081C106.268 11.8081 107.075 11.9106 107.82 12.1157C108.565 12.314 109.18 12.6011 109.666 12.9771L109.081 13.4282C108.227 12.8403 107 12.5464 105.4 12.5464C104.375 12.5464 103.623 12.6523 103.144 12.8643C102.666 13.0762 102.426 13.3496 102.426 13.6846C102.426 14.0742 102.594 14.3511 102.929 14.5151C103.264 14.6792 103.848 14.7612 104.682 14.7612H105.851C107.751 14.7612 109.218 15.1953 110.25 16.0635C111.282 16.9248 111.798 18.0801 111.798 19.5293C111.798 20.1924 111.651 20.8145 111.357 21.3955C111.063 21.9766 110.64 22.4893 110.086 22.9336C109.539 23.3711 108.838 23.7197 107.984 23.9795C107.129 24.2324 106.179 24.3589 105.133 24.3589C103.814 24.3589 102.58 24.1606 101.432 23.7642C100.283 23.3608 99.3262 22.8003 98.5605 22.0825L99.1553 21.6416C99.8525 22.2705 100.724 22.7593 101.77 23.1079C102.816 23.4497 103.937 23.6206 105.133 23.6206C106.979 23.6206 108.428 23.231 109.481 22.4517C110.534 21.6724 111.06 20.6982 111.06 19.5293C111.06 18.292 110.609 17.311 109.707 16.5864C108.804 15.8618 107.519 15.4995 105.851 15.4995Z" fill="#569372"/>
<path fill-rule="evenodd" clip-rule="evenodd" d="M68.0631 26.0604C67.9619 26.1601 67.9779 26.328 68.1441 26.9098C68.2263 27.1978 68.3623 27.714 68.4463 28.057C68.8301 29.6239 69.0919 30.4175 69.5032 31.2607C70.3699 33.0378 71.6582 34.4566 73.0169 35.1304C73.3783 35.3096 73.9114 35.4965 74.0611 35.4965C74.102 35.4965 74.2259 35.3756 74.3363 35.2278C75.0597 34.2598 76.0331 33.4695 77.2237 32.8835L77.7403 32.6293L77.4421 32.4521C77.1498 32.2785 75.9007 31.6766 75.1471 31.3464C74.9376 31.2546 74.7706 31.1757 74.7759 31.171C74.7981 31.1518 76.6011 31.5354 76.8871 31.6203C77.2891 31.7396 77.7061 31.9269 78.1189 32.1737L78.4492 32.3711L78.7137 32.2977C79.7138 32.0199 80.8855 31.7827 81.7077 31.6914C81.8398 31.6767 82.002 31.6545 82.0681 31.642L82.1885 31.6193L81.959 31.2913C81.6779 30.8896 80.8552 30.0656 80.3538 29.6838C79.8163 29.2744 79.1772 28.8724 78.557 28.5537C76.9061 27.7051 75.8997 27.473 72.4928 27.1544C71.9764 27.1062 71.3868 27.037 71.1826 27.0008C70.3706 26.8568 69.4807 26.5667 68.6965 26.1904C68.248 25.9752 68.1666 25.9585 68.0631 26.0604ZM89.2412 30.7314C88.5563 31.0763 87.5748 31.3992 86.5819 31.6063C85.7623 31.7771 85.1184 31.8692 83.4327 32.0567C81.0271 32.3241 80.056 32.4889 78.9567 32.8164C77.6332 33.2107 76.4722 33.8437 75.6213 34.6349C73.9793 36.1618 72.7414 39.1911 72.3523 42.635C72.2772 43.2997 72.2801 45.7726 72.3567 46.3763C72.4265 46.9266 72.5693 47.6066 72.6458 47.7525C72.789 48.0258 73.0051 48.0796 73.1561 47.8796C73.2372 47.7722 73.2371 47.7637 73.1473 47.3851C72.8879 46.2914 72.9061 44.9523 73.1973 43.7101C73.6579 41.7451 74.4691 40.4034 75.8067 39.3945C76.7574 38.6774 77.7422 38.211 79.3169 37.7319C79.9454 37.5407 80.0299 37.5243 80.0884 37.5819C80.1779 37.6701 80.1162 37.7211 79.6987 37.9038C78.9725 38.2218 77.8098 38.8174 77.4656 39.0478C76.3551 39.791 75.4667 40.7818 74.884 41.9268C74.5283 42.626 74.37 43.3747 74.5184 43.6572C74.658 43.9232 74.8497 43.9439 75.3821 43.7506C76.294 43.4195 77.0272 43.271 78.9781 43.0219C81.5854 42.6891 82.4748 42.4735 83.6193 41.8966C86.1298 40.6311 87.9802 38.2563 88.9075 35.1095C88.9807 34.8612 89.1978 34.0387 89.3899 33.2819C89.5821 32.525 89.799 31.7026 89.8721 31.4542C90.0319 30.9108 90.039 30.7574 89.9098 30.6389C89.773 30.5133 89.6369 30.5321 89.2412 30.7314Z" fill="#569372"/>
</svg>
