<svg width="16" height="16" viewBox="0 0 16 16" fill="none" xmlns="http://www.w3.org/2000/svg">
<path d="M15.1497 12.5983L12.7698 10.2307C12.1018 9.56614 11.0215 9.56892 10.3569 10.237L9.98646 10.6093C9.68836 10.9082 9.48167 11.2859 9.39061 11.6981C8.58605 11.7152 7.6758 11.5808 6.89625 11.0779C6.41731 10.7238 5.9649 10.3352 5.54265 9.9151C5.18594 9.56043 4.85136 9.18419 4.5408 8.78849C3.93217 7.97518 3.76956 6.98669 3.78351 6.11993C4.19525 6.02676 4.5719 5.81812 4.86927 5.51847L5.23969 5.14614C5.90428 4.47811 5.90149 3.3978 5.23346 2.73318L2.85362 0.365596C2.40826 -0.0774747 1.68804 -0.0756162 1.245 0.369747L0.838525 0.778423C0.317437 1.30221 0.0517565 1.98333 0.0396171 2.66802C-0.0904361 4.11289 0.190323 5.70236 0.851575 7.26463C1.28818 8.29613 1.88656 9.30287 2.61457 10.2382C2.62375 10.2504 2.63247 10.2628 2.64179 10.275L2.64285 10.2742C3.01453 10.7485 3.41511 11.1994 3.8423 11.6243C4.28381 12.0639 4.75276 12.475 5.24633 12.8552L5.24159 12.8615C5.32382 12.9235 5.40768 12.9833 5.49309 13.0409C7.56769 14.5671 9.91031 15.4215 12.0882 15.4158C12.2154 15.4154 12.3422 15.4114 12.4683 15.4052C13.2798 15.5028 14.1262 15.2399 14.7473 14.6156L15.1539 14.207C15.5969 13.7616 15.595 13.0414 15.1497 12.5983Z" fill="#CA6791"/>
</svg>
