<svg width="124" height="124" viewBox="0 0 124 124" fill="none" xmlns="http://www.w3.org/2000/svg">
<circle cx="62" cy="62" r="62" fill="#C585A1" fill-opacity="0.5"/>
<path d="M22 24H29.2025V45.5715H22V24ZM31.4248 29.8731C31.4248 27.5344 31.9246 25.963 32.9242 25.1588C33.8703 24.4074 35.6508 24.0317 38.2659 24.0317H39.618V27.0318C39.618 29.4234 39.1049 31.127 38.0784 32.1429C37.0342 33.1587 35.2359 33.6668 32.6833 33.6668H31.4248V29.8731ZM31.4248 35.3176H32.6833C35.2001 35.3176 36.9986 35.9101 38.0784 37.0953C39.1049 38.2276 39.618 40.0159 39.618 42.4603V45.6032H38.2659C35.7044 45.6032 33.9239 45.1483 32.9242 44.2382C31.9246 43.3174 31.4248 41.6667 31.4248 39.2857V35.3176ZM52.9922 33.9206C52.9922 30.9154 54.63 29.4127 57.9055 29.4127H59.7797V37.508H52.9922V33.9206ZM43.6209 29.4127H51.0644V45.6032H43.6209V29.4127ZM73.02 29.4127H74.0509C76.2464 29.4127 77.9332 30.2169 79.1113 31.8254C80.1734 33.2858 80.7045 35.2222 80.7045 37.6349C80.7045 40.09 80.1154 42.0159 78.9372 43.4128C77.7056 44.873 75.9653 45.6032 73.7161 45.6032H73.02V29.4127ZM63.1667 37.6985C63.1667 36.5344 63.2962 35.455 63.555 34.4604C63.8137 33.455 64.2155 32.5768 64.7599 31.8254C65.938 30.2169 67.6248 29.4127 69.8203 29.4127H70.8512V45.6032H70.1551C67.9059 45.6032 66.1655 44.873 64.9339 43.4128C63.7558 42.0159 63.1667 40.1111 63.1667 37.6985ZM93.3155 29.4127H94.3464C96.5419 29.4127 98.2287 30.2169 99.4069 31.8254C100.469 33.2858 101 35.2222 101 37.6349C101 40.09 100.411 42.0159 99.2329 43.4128C98.0012 44.873 96.2608 45.6032 94.0116 45.6032H93.3155V29.4127ZM83.9442 29.4127H91.1467V51H83.9442V29.4127Z" fill="#CA6791"/>
<path d="M8.49292 72.0454H7.70821V52.9546H15.1955V53.9091H8.49292V54.8636H15.1955V55.8182H8.49292V56.7727H15.1955V57.7273H8.49292V60.6439H14.6724V61.5984H8.49292V62.553H14.6724V63.5076H8.49292V64.4622H14.6724V65.4166H8.49292V72.0454ZM6.92351 72.0454H6.13881V52.9546H6.92351V72.0454ZM5.35411 72.0454H4.56941V52.9546H5.35411V72.0454ZM3.7847 72.0454H3V52.9546H3.7847V72.0454ZM16.972 52.9546H17.7568V72.0454H16.972V52.9546ZM21.6803 52.9546H22.465V67.2727H28.2521V68.2273H22.465V69.1819H28.2521V70.1363H22.465V71.0909H28.2521V72.0454H21.6803V52.9546ZM20.1108 52.9546H20.8955V72.0454H20.1108V52.9546ZM18.5415 52.9546H19.3262V72.0454H18.5415V52.9546ZM35.9793 59.8086C35.369 60.5512 35.0638 61.4482 35.0638 62.5C35.0638 63.5518 35.369 64.4532 35.9793 65.2046C36.5969 65.947 37.338 66.3181 38.2026 66.3181C39.0672 66.3181 39.8048 65.947 40.4151 65.2046C41.0326 64.4532 41.3415 63.5518 41.3415 62.5C41.3415 61.4482 41.0326 60.5512 40.4151 59.8086C39.8048 59.0575 39.0672 58.6819 38.2026 58.6819C37.338 58.6819 36.5969 59.0575 35.9793 59.8086ZM35.4235 65.8806C34.6606 64.9438 34.2791 63.8169 34.2791 62.5C34.2791 61.183 34.6606 60.0606 35.4235 59.1326C36.1936 58.1957 37.1201 57.7273 38.2026 57.7273C39.2852 57.7273 40.2079 58.1957 40.9709 59.1326C41.741 60.0606 42.1261 61.183 42.1261 62.5C42.1261 63.8169 41.741 64.9438 40.9709 65.8806C40.2079 66.8087 39.2852 67.2727 38.2026 67.2727C37.1201 67.2727 36.1936 66.8087 35.4235 65.8806ZM34.8676 58.4564C33.9521 59.5789 33.4944 60.9268 33.4944 62.5C33.4944 64.0732 33.9521 65.4211 34.8676 66.5435C35.7904 67.666 36.9021 68.2273 38.2026 68.2273C39.5032 68.2273 40.6112 67.666 41.5267 66.5435C42.4494 65.4211 42.9108 64.0732 42.9108 62.5C42.9108 60.9268 42.4494 59.5789 41.5267 58.4564C40.6112 57.334 39.5032 56.7727 38.2026 56.7727C36.9021 56.7727 35.7904 57.334 34.8676 58.4564ZM33.4399 65.8541C32.9531 64.829 32.7097 63.7108 32.7097 62.5C32.7097 61.2892 32.9531 60.1711 33.4399 59.1458C33.934 58.1206 34.6024 57.3119 35.4453 56.7197C36.2881 56.1186 37.2072 55.8182 38.2026 55.8182C39.1981 55.8182 40.1172 56.1186 40.96 56.7197C41.8028 57.3119 42.4676 58.1206 42.9544 59.1458C43.4485 60.1711 43.6955 61.2892 43.6955 62.5C43.6955 63.7108 43.4485 64.829 42.9544 65.8541C42.4676 66.8794 41.8028 67.6925 40.96 68.2935C40.1172 68.8858 39.1981 69.1819 38.2026 69.1819C37.2072 69.1819 36.2881 68.8858 35.4453 68.2935C34.6024 67.6925 33.934 66.8794 33.4399 65.8541ZM32.4154 59.5436C32.0885 60.4805 31.925 61.4659 31.925 62.5C31.925 63.5341 32.0885 64.524 32.4154 65.4697C32.7497 66.4066 33.1965 67.2197 33.7559 67.9091C34.3227 68.5896 34.9911 69.1332 35.7614 69.5397C36.5388 69.9374 37.3525 70.1363 38.2026 70.1363C39.0527 70.1363 39.8628 69.9374 40.6331 69.5397C41.4105 69.1332 42.0789 68.5896 42.6384 67.9091C43.2051 67.2197 43.652 66.4066 43.9789 65.4697C44.3132 64.524 44.4803 63.5341 44.4803 62.5C44.4803 61.4659 44.3132 60.4805 43.9789 59.5436C43.652 58.5978 43.2051 57.7847 42.6384 57.1041C42.0789 56.4147 41.4105 55.8712 40.6331 55.4735C39.8628 55.067 39.0527 54.8636 38.2026 54.8636C37.3525 54.8636 36.5388 55.067 35.7614 55.4735C34.9911 55.8712 34.3227 56.4147 33.7559 57.1041C33.1965 57.7847 32.7497 58.5978 32.4154 59.5436ZM31.6961 65.8409C31.3256 64.7803 31.1403 63.6666 31.1403 62.5C31.1403 61.3333 31.3256 60.2197 31.6961 59.1591C32.0739 58.0985 32.5753 57.1881 33.2002 56.428C33.8323 55.6591 34.5842 55.0493 35.4561 54.5985C36.3281 54.1389 37.2436 53.9091 38.2026 53.9091C39.1617 53.9091 40.0772 54.1389 40.9491 54.5985C41.8209 55.0493 42.5693 55.6591 43.1942 56.428C43.8263 57.1881 44.3276 58.0985 44.6983 59.1591C45.076 60.2197 45.265 61.3333 45.265 62.5C45.265 63.6666 45.076 64.7803 44.6983 65.8409C44.3276 66.9015 43.8263 67.8163 43.1942 68.5852C42.5693 69.3453 41.8209 69.9552 40.9491 70.4148C40.0772 70.8655 39.1617 71.0909 38.2026 71.0909C37.2436 71.0909 36.3281 70.8655 35.4561 70.4148C34.5842 69.9552 33.8323 69.3453 33.2002 68.5852C32.5753 67.8163 32.0739 66.9015 31.6961 65.8409ZM30.9768 58.8011C30.5626 59.9766 30.3556 61.2095 30.3556 62.5C30.3556 63.7903 30.5626 65.0278 30.9768 66.2121C31.3909 67.3877 31.9468 68.404 32.6443 69.2614C33.3491 70.1098 34.1847 70.786 35.151 71.2897C36.1247 71.7936 37.1418 72.0454 38.2026 72.0454C39.2635 72.0454 40.277 71.7936 41.2434 71.2897C42.217 70.786 43.0525 70.1098 43.7501 69.2614C44.4549 68.404 45.0143 67.3877 45.4285 66.2121C45.8426 65.0278 46.0496 63.7903 46.0496 62.5C46.0496 61.2095 45.8426 59.9766 45.4285 58.8011C45.0143 57.6167 44.4549 56.6004 43.7501 55.7518C43.0525 54.8946 42.217 54.214 41.2434 53.7102C40.277 53.2064 39.2635 52.9546 38.2026 52.9546C37.1418 52.9546 36.1247 53.2064 35.151 53.7102C34.1847 54.214 33.3491 54.8946 32.6443 55.7518C31.9468 56.6004 31.3909 57.6167 30.9768 58.8011ZM30.2575 66.5833C29.7998 65.2841 29.5709 63.923 29.5709 62.5C29.5709 61.077 29.7998 59.7203 30.2575 58.4299C30.7153 57.1307 31.3292 56.0126 32.0993 55.0758C32.8696 54.1389 33.7851 53.392 34.8458 52.8352C35.9139 52.2784 37.0328 52 38.2026 52C39.3724 52 40.4877 52.2784 41.5485 52.8352C42.6166 53.392 43.5357 54.1389 44.3058 55.0758C45.076 56.0126 45.69 57.1307 46.1477 58.4299C46.6055 59.7203 46.8343 61.077 46.8343 62.5C46.8343 63.923 46.6055 65.2841 46.1477 66.5833C45.69 67.8737 45.076 68.9874 44.3058 69.9243C43.5357 70.8611 42.6166 71.6079 41.5485 72.1648C40.4877 72.7215 39.3724 73 38.2026 73C37.0328 73 35.9139 72.7215 34.8458 72.1648C33.7851 71.6079 32.8696 70.8611 32.0993 69.9243C31.3292 68.9874 30.7153 67.8737 30.2575 66.5833ZM64.076 65.9071C64.2286 65.916 64.4139 65.9204 64.6319 65.9204C64.8498 65.9204 65.0314 65.916 65.1767 65.9071C65.3293 65.8895 65.4856 65.8541 65.6455 65.8011C65.8053 65.7393 65.9324 65.6597 66.0269 65.5624C66.1213 65.4652 66.1976 65.3283 66.2558 65.1515C66.3211 64.9659 66.3539 64.7449 66.3539 64.4887V52.9546H67.1386V64.4887C67.1386 66.0795 66.3029 66.875 64.6319 66.875C63.789 66.875 63.1642 66.6806 62.7573 66.2916C62.6992 66.6363 62.6302 66.9412 62.5502 67.2064C63.1024 67.6218 63.7963 67.8296 64.6319 67.8296C65.6055 67.8296 66.3974 67.5555 67.0077 67.0075C67.618 66.4508 67.9232 65.611 67.9232 64.4887V52.9546H68.7079V64.4887C68.7079 65.8762 68.3228 66.9412 67.5527 67.6837C66.7897 68.4172 65.8161 68.784 64.6319 68.784C63.7091 68.784 62.9172 68.5543 62.2559 68.0946C62.147 68.3775 62.0198 68.6471 61.8745 68.9034C62.6664 69.4602 63.5856 69.7386 64.6319 69.7386C65.3076 69.7386 65.936 69.6238 66.5173 69.3939C67.1058 69.1641 67.6217 68.8326 68.0649 68.3996C68.5081 67.9665 68.8569 67.4142 69.1112 66.7424C69.3655 66.0707 69.4926 65.3195 69.4926 64.4887V52.9546H70.2774V64.4887C70.2774 65.7613 70.0194 66.875 69.5035 67.8296C68.9949 68.784 68.3156 69.4999 67.4655 69.9773C66.6227 70.4545 65.6781 70.6932 64.6319 70.6932C63.4112 70.6932 62.3359 70.3529 61.4058 69.6724C61.2024 69.9552 61.0172 70.1849 60.85 70.3618C61.9326 71.219 63.1932 71.6477 64.6319 71.6477C65.8161 71.6477 66.8915 71.3648 67.8578 70.7992C68.8242 70.2335 69.598 69.4028 70.1793 68.3068C70.7678 67.202 71.0621 65.9292 71.0621 64.4887V52.9546H71.8467V64.4887C71.8467 65.7083 71.6542 66.8308 71.2691 67.8561C70.8913 68.8813 70.3755 69.7386 69.7215 70.428C69.0748 71.1174 68.312 71.6521 67.4328 72.0321C66.5537 72.4122 65.6199 72.6023 64.6319 72.6023C62.9026 72.6023 61.424 72.0631 60.1961 70.9848C58.9246 72.0631 57.4242 72.6023 55.6949 72.6023C54.7068 72.6023 53.7731 72.4122 52.894 72.0321C52.0148 71.6521 51.2483 71.1174 50.5944 70.428C49.9477 69.7386 49.4319 68.8813 49.0468 67.8561C48.669 66.8308 48.4801 65.7083 48.4801 64.4887V52.9546H49.2647V64.4887C49.2647 65.5758 49.4319 66.5745 49.7661 67.4849C50.1076 68.3952 50.569 69.1508 51.1502 69.7519C51.7314 70.3529 52.4108 70.8213 53.1883 71.1572C53.9729 71.4842 54.8086 71.6477 55.6949 71.6477C56.8502 71.6477 57.9219 71.3295 58.9101 70.6932C59.8982 70.048 60.6793 69.1773 61.2532 68.0814C61.8345 66.9766 62.1252 65.779 62.1252 64.4887V52.9546H62.9098V64.4887C62.9098 64.7449 62.9389 64.9659 62.9971 65.1515C63.0624 65.3283 63.1424 65.4652 63.2369 65.5624C63.3312 65.6597 63.4584 65.7393 63.6182 65.8011C63.7781 65.8541 63.9307 65.8895 64.076 65.9071ZM58.2016 52.9546V64.4887C58.2016 66.0795 57.3661 66.875 55.6949 66.875C54.0238 66.875 53.1883 66.0795 53.1883 64.4887V52.9546H53.9729V64.4887C53.9729 64.7449 54.0021 64.9659 54.0602 65.1515C54.1256 65.3283 54.2055 65.4652 54.3 65.5624C54.3944 65.6597 54.5215 65.7393 54.6813 65.8011C54.8412 65.8541 54.9938 65.8895 55.1391 65.9071C55.2917 65.916 55.477 65.9204 55.6949 65.9204C55.9129 65.9204 56.0945 65.916 56.2398 65.9071C56.3925 65.8895 56.5487 65.8541 56.7086 65.8011C56.8684 65.7393 56.9955 65.6597 57.09 65.5624C57.1844 65.4652 57.2607 65.3283 57.3189 65.1515C57.3842 64.9659 57.417 64.7449 57.417 64.4887V52.9546H58.2016ZM59.771 52.9546V64.4887C59.771 65.8762 59.386 66.9412 58.6158 67.6837C57.8529 68.4172 56.8793 68.784 55.6949 68.784C54.5106 68.784 53.5334 68.4172 52.7632 67.6837C52.0003 66.9412 51.6189 65.8762 51.6189 64.4887V52.9546H52.4036V64.4887C52.4036 65.611 52.7087 66.4508 53.319 67.0075C53.9294 67.5555 54.7213 67.8296 55.6949 67.8296C56.6686 67.8296 57.4606 67.5555 58.0709 67.0075C58.6812 66.4508 58.9863 65.611 58.9863 64.4887V52.9546H59.771ZM61.3405 52.9546V64.4887C61.3405 65.7613 61.0825 66.875 60.5666 67.8296C60.058 68.784 59.3787 69.4999 58.5286 69.9773C57.6858 70.4545 56.7412 70.6932 55.6949 70.6932C54.6487 70.6932 53.7005 70.4545 52.8504 69.9773C52.0076 69.4999 51.3283 68.784 50.8124 67.8296C50.3038 66.875 50.0494 65.7613 50.0494 64.4887V52.9546H50.8341V64.4887C50.8341 65.3195 50.9613 66.0707 51.2156 66.7424C51.47 67.4142 51.8187 67.9665 52.2619 68.3996C52.7051 68.8326 53.2173 69.1641 53.7986 69.3939C54.3871 69.6238 55.0192 69.7386 55.6949 69.7386C56.3707 69.7386 56.9992 69.6238 57.5804 69.3939C58.169 69.1641 58.6848 68.8326 59.128 68.3996C59.5712 67.9665 59.9199 67.4142 60.1743 66.7424C60.4286 66.0707 60.5558 65.3195 60.5558 64.4887V52.9546H61.3405ZM77.7429 72.0454H76.9582V52.9546H77.7429V72.0454ZM76.1735 72.0454H75.3888V52.9546H76.1735V72.0454ZM74.6041 72.0454H73.8194V52.9546H74.6041V72.0454ZM79.3124 67.2727H86.8215V68.2273H79.3124V69.1819H86.8215V70.1363H79.3124V71.0909H86.8215V72.0454H78.5276V52.9546H86.8215V53.9091H79.3124V54.8636H86.8215V55.8182H79.3124V56.7727H86.8215V57.7273H79.3124V60.1003H86.3855V61.0549H79.3124V62.0095H86.3855V62.964H79.3124V63.9186H86.3855V64.873H79.3124V67.2727ZM94.6359 62.9242H99.3659C99.9906 62.9242 100.521 62.6855 100.957 62.2083C101.393 61.7311 101.611 61.0593 101.611 60.1932C101.611 59.5568 101.382 58.9867 100.924 58.483C100.474 57.9792 99.9544 57.7273 99.3659 57.7273H92.6304V72.0454H91.8458V56.7727H99.3659C100.172 56.7727 100.877 57.1174 101.48 57.8068C102.09 58.4962 102.396 59.2916 102.396 60.1932C102.396 61.3157 102.101 62.2127 101.513 62.8845C100.924 63.5473 100.209 63.8788 99.3659 63.8788H94.6359V62.9242ZM94.6359 64.8334H99.3659C100.412 64.8334 101.309 64.4002 102.058 63.5341C102.806 62.668 103.18 61.5542 103.18 60.1932C103.18 59.0353 102.799 58.019 102.036 57.1439C101.273 56.2601 100.383 55.8182 99.3659 55.8182H91.0611V72.0454H90.2764V54.8636H99.3659C100.601 54.8636 101.676 55.3983 102.592 56.4679C103.507 57.5284 103.965 58.7702 103.965 60.1932C103.965 61.7841 103.511 63.1143 102.603 64.1837C101.702 65.2532 100.623 65.7879 99.3659 65.7879H94.6359V64.8334ZM94.6359 66.7424H99.3659C100.332 66.7424 101.226 66.4596 102.047 65.8939C102.868 65.3283 103.522 64.5417 104.009 63.5341C104.503 62.5265 104.75 61.4129 104.75 60.1932C104.75 59.0884 104.506 58.0543 104.02 57.0909C103.533 56.1186 102.872 55.3453 102.036 54.7709C101.208 54.1963 100.318 53.9091 99.3659 53.9091H89.4916V72.0454H88.7069V52.9546H99.3659C100.187 52.9546 100.975 53.1534 101.731 53.5511C102.494 53.94 103.151 54.4615 103.703 55.1156C104.256 55.7608 104.699 56.5297 105.033 57.4223C105.367 58.3151 105.535 59.2386 105.535 60.1932C105.535 61.7399 105.244 63.0922 104.663 64.25C104.081 65.399 103.3 66.2739 102.319 66.875L103.965 72.0454H103.126L101.567 67.2594C101.371 67.339 101.142 67.4186 100.881 67.4981L102.352 72.0454H101.513L100.074 67.6572C99.849 67.6837 99.6129 67.6969 99.3659 67.6969L100.75 72.0454H99.9217L98.5484 67.6969H97.84L99.1587 72.0454H98.3304L97.0009 67.6969H94.6359V66.7424ZM94.1999 72.0454H93.4151V58.6819H99.3659C99.7727 58.6819 100.118 58.8321 100.401 59.1326C100.685 59.4243 100.826 59.7777 100.826 60.1932C100.826 61.3775 100.339 61.9696 99.3659 61.9696H94.6359V61.0152H99.3659C99.8163 61.0152 100.042 60.7411 100.042 60.1932C100.042 60.0429 99.9726 59.9148 99.8345 59.8086C99.7037 59.6938 99.5475 59.6363 99.3659 59.6363H94.1999V72.0454ZM114.493 62.964H113.251C111.725 62.964 110.552 62.5883 109.73 61.8371C108.91 61.077 108.498 60.0341 108.498 58.7084C108.498 57.4709 108.982 56.4413 109.948 55.6193C110.914 54.7885 112.27 54.3731 114.014 54.3731C115.176 54.3731 116.259 54.5675 117.262 54.9564C118.272 55.3453 119.11 55.8933 119.779 56.6004L119.169 57.1969C118.572 56.6048 117.824 56.1451 116.924 55.8182C116.023 55.4912 115.052 55.3276 114.014 55.3276C112.481 55.3276 111.308 55.6458 110.493 56.2822C109.687 56.9186 109.284 57.7273 109.284 58.7084C109.284 59.769 109.614 60.5865 110.276 61.1609C110.944 61.7266 111.936 62.0095 113.251 62.0095H114.449C115.997 62.0095 117.181 62.3895 118.003 63.1496C118.831 63.9009 119.245 64.9394 119.245 66.2651C119.245 67.5025 118.762 68.5366 117.795 69.3674C116.829 70.1894 115.474 70.6003 113.73 70.6003C112.568 70.6003 111.482 70.4059 110.471 70.0171C109.469 69.6282 108.633 69.0801 107.965 68.3731L108.575 67.7764C109.171 68.3686 109.92 68.8282 110.821 69.1552C111.721 69.4823 112.691 69.6458 113.73 69.6458C115.264 69.6458 116.433 69.3276 117.24 68.6913C118.054 68.0549 118.46 67.2462 118.46 66.2651C118.46 65.2046 118.126 64.3914 117.457 63.8258C116.796 63.2512 115.808 62.964 114.493 62.964ZM114.493 64.873H113.251C111.231 64.873 109.672 64.3163 108.575 63.2026C107.478 62.0802 106.93 60.5821 106.93 58.7084C106.93 57.851 107.086 57.0467 107.398 56.2955C107.711 55.5442 108.157 54.8857 108.739 54.32C109.327 53.7456 110.076 53.2948 110.983 52.9678C111.892 52.6319 112.902 52.464 114.014 52.464C115.416 52.464 116.727 52.7248 117.948 53.2462C119.169 53.7588 120.186 54.4792 121 55.4071L120.368 55.9773C119.627 55.1642 118.7 54.5366 117.588 54.0947C116.476 53.6439 115.285 53.4186 114.014 53.4186C112.052 53.4186 110.512 53.9224 109.392 54.9299C108.274 55.9375 107.714 57.1969 107.714 58.7084C107.714 60.3081 108.194 61.5763 109.153 62.5132C110.112 63.4502 111.478 63.9186 113.251 63.9186H114.449C116.6 63.9186 117.675 64.7007 117.675 66.2651C117.675 66.9722 117.345 67.5555 116.684 68.0151C116.03 68.4658 115.046 68.6913 113.73 68.6913C112.807 68.6913 111.95 68.5631 111.158 68.3068C110.366 68.0416 109.712 67.666 109.197 67.1799L109.817 66.5965C110.726 67.3566 112.03 67.7368 113.73 67.7368C114.82 67.7368 115.62 67.5997 116.128 67.3257C116.637 67.0518 116.891 66.6983 116.891 66.2651C116.891 65.7613 116.712 65.4034 116.356 65.1912C116.001 64.9792 115.38 64.873 114.493 64.873ZM114.493 61.0549H113.251C111.129 61.0549 110.068 60.2727 110.068 58.7084C110.068 58.0013 110.396 57.4223 111.049 56.9716C111.71 56.5119 112.699 56.2822 114.014 56.2822C114.936 56.2822 115.794 56.4147 116.586 56.6799C117.378 56.9363 118.031 57.3075 118.548 57.7936L117.926 58.3769C117.018 57.6167 115.714 57.2368 114.014 57.2368C112.924 57.2368 112.125 57.3737 111.616 57.6478C111.108 57.9218 110.853 58.2752 110.853 58.7084C110.853 59.2121 111.031 59.5701 111.387 59.7821C111.743 59.9943 112.364 60.1003 113.251 60.1003H114.493C116.513 60.1003 118.072 60.6616 119.169 61.7841C120.266 62.8977 120.814 64.3914 120.814 66.2651C120.814 67.1225 120.658 67.9268 120.345 68.678C120.033 69.4293 119.583 70.0922 118.994 70.6667C118.413 71.2323 117.668 71.683 116.76 72.0189C115.851 72.3459 114.842 72.5095 113.73 72.5095C112.328 72.5095 111.016 72.2531 109.796 71.7406C108.575 71.219 107.558 70.4943 106.744 69.5662L107.376 68.9962C108.117 69.8093 109.044 70.4413 110.155 70.892C111.267 71.3339 112.459 71.5549 113.73 71.5549C115.692 71.5549 117.232 71.0512 118.351 70.0436C119.471 69.036 120.03 67.7764 120.03 66.2651C120.03 64.6654 119.55 63.397 118.592 62.4602C117.632 61.5233 116.266 61.0549 114.493 61.0549Z" fill="#569372"/>
<path fill-rule="evenodd" clip-rule="evenodd" d="M46.0889 81.0879C45.9463 81.2329 45.9689 81.4771 46.203 82.3234C46.3189 82.7423 46.5105 83.4931 46.6289 83.992C47.1697 86.2711 47.5386 87.4255 48.1181 88.6519C49.3394 91.2368 51.1547 93.3005 53.0693 94.2806C53.5785 94.5412 54.3297 94.8131 54.5406 94.8131C54.5983 94.8131 54.7729 94.6372 54.9284 94.4223C55.9478 93.0143 57.3194 91.8647 58.997 91.0124L59.725 90.6426L59.3048 90.3849C58.8929 90.1324 57.1328 89.2569 56.0709 88.7766C55.7757 88.6431 55.5404 88.5283 55.5479 88.5215C55.5792 88.4935 58.1197 89.0515 58.5227 89.175C59.0892 89.3485 59.6768 89.621 60.2585 89.9799L60.7239 90.2671L61.0966 90.1603C62.5058 89.7562 64.1569 89.4112 65.3154 89.2784C65.5016 89.257 65.7301 89.2247 65.8233 89.2066L65.9929 89.1735L65.6695 88.6964C65.2734 88.1122 64.1142 86.9136 63.4076 86.3583C62.6503 85.7628 61.7497 85.178 60.8758 84.7145C58.5495 83.4802 57.1314 83.1426 52.3308 82.6791C51.6031 82.609 50.7723 82.5084 50.4846 82.4557C49.3404 82.2463 48.0864 81.8243 46.9814 81.277C46.3495 80.9639 46.2348 80.9396 46.0889 81.0879ZM75.9308 87.882C74.9657 88.3837 73.5827 88.8534 72.1836 89.1546C71.0287 89.4031 70.1214 89.537 67.7461 89.8098C64.3564 90.1987 62.988 90.4384 61.439 90.9148C59.5741 91.4883 57.9381 92.409 56.7391 93.5599C54.4254 95.7808 52.6811 100.187 52.1328 105.196C52.027 106.163 52.0311 109.76 52.139 110.638C52.2373 111.439 52.4386 112.428 52.5464 112.64C52.7481 113.038 53.0526 113.116 53.2654 112.825C53.3797 112.669 53.3796 112.656 53.253 112.106C52.8875 110.515 52.9132 108.567 53.3235 106.76C53.9725 103.902 55.1156 101.95 57.0004 100.483C58.34 99.4399 59.7277 98.7615 61.9466 98.0646C62.8322 97.7865 62.9512 97.7626 63.0337 97.8464C63.1598 97.9747 63.0728 98.0489 62.4845 98.3146C61.4613 98.7772 59.8229 99.6435 59.3379 99.9786C57.7731 101.06 56.5213 102.501 55.7002 104.166C55.199 105.183 54.9759 106.272 55.185 106.683C55.3817 107.07 55.6519 107.1 56.4021 106.819C57.687 106.337 58.7202 106.121 61.4692 105.759C65.1431 105.275 66.3963 104.961 68.009 104.122C71.5466 102.282 74.1539 98.8274 75.4606 94.2502C75.5637 93.889 75.8697 92.6927 76.1403 91.5919C76.4112 90.4909 76.7168 89.2947 76.8198 88.9334C77.045 88.143 77.055 87.9199 76.8729 87.7475C76.6802 87.5648 76.4884 87.5922 75.9308 87.882Z" fill="#569372"/>
</svg>
